<svg width="33" height="33" viewBox="0 0 33 33" fill="none" xmlns="http://www.w3.org/2000/svg">
<circle cx="15.95" cy="15.95" r="15.95" transform="matrix(0.999966 0.00829379 -0.010793 0.999942 0.344238 0)" fill="#0360D9"/>
<path d="M22.4118 15.9037L17.2973 10.4912L16.9545 10.1283C16.8764 10.0461 16.7708 10 16.6607 10C16.5506 10 16.4449 10.0461 16.3668 10.1283L10.9095 15.9037C10.8295 15.9881 10.7662 16.0886 10.7235 16.1993C10.6808 16.3101 10.6594 16.4287 10.6607 16.5483C10.666 17.0416 11.0538 17.4355 11.5197 17.4355H12.0823V22H21.2391V17.4355H21.8135C22.0399 17.4355 22.253 17.3416 22.4131 17.172C22.492 17.0888 22.5545 16.9898 22.597 16.8808C22.6394 16.7718 22.6611 16.655 22.6606 16.5371C22.6606 16.2989 22.572 16.0732 22.4118 15.9037ZM17.4019 20.991H15.9194V18.132H17.4019V20.991ZM20.2861 16.4264V20.991H18.249V17.7956C18.249 17.4859 18.0121 17.2351 17.7196 17.2351H15.6018C15.3093 17.2351 15.0723 17.4859 15.0723 17.7956V20.991H13.0353V16.4264H11.7646L16.662 11.2452L16.9677 11.569L21.5581 16.4264H20.2861Z" fill="white"/>
</svg>
