<svg width="32" height="32" viewBox="0 0 32 32" fill="none" xmlns="http://www.w3.org/2000/svg">
<circle cx="15.9498" cy="15.95" r="15.8012" transform="rotate(0.542099 15.9498 15.95)" fill="#0360D9"/>
<path d="M21.2343 10.5301H18.5969V9.44812C18.5969 9.37373 18.5404 9.31287 18.4713 9.31287H17.5922C17.5231 9.31287 17.4666 9.37373 17.4666 9.44812V10.5301H13.4478V9.44812C13.4478 9.37373 13.3912 9.31287 13.3222 9.31287H12.443C12.374 9.31287 12.3175 9.37373 12.3175 9.44812V10.5301H9.68009C9.40222 10.5301 9.17773 10.7719 9.17773 11.0711V22.2968C9.17773 22.596 9.40222 22.8378 9.68009 22.8378H21.2343C21.5121 22.8378 21.7366 22.596 21.7366 22.2968V11.0711C21.7366 10.7719 21.5121 10.5301 21.2343 10.5301ZM20.6063 21.6206H10.308V15.1962H20.6063V21.6206ZM10.308 14.0466V11.7474H12.3175V12.5589C12.3175 12.6332 12.374 12.6941 12.443 12.6941H13.3222C13.3912 12.6941 13.4478 12.6332 13.4478 12.5589V11.7474H17.4666V12.5589C17.4666 12.6332 17.5231 12.6941 17.5922 12.6941H18.4713C18.5404 12.6941 18.5969 12.6332 18.5969 12.5589V11.7474H20.6063V14.0466H10.308Z" fill="white"/>
</svg>
