<svg width="32" height="32" viewBox="0 0 32 32" fill="none" xmlns="http://www.w3.org/2000/svg">
<ellipse cx="15.7978" cy="15.8046" rx="15.7978" ry="15.8046" transform="matrix(0.999957 0.00925237 -0.00967488 0.999953 0.305664 0)" fill="#0360D9"/>
<path d="M13.142 10.0493H11.5966C11.1868 10.0493 10.7937 10.2122 10.5039 10.5021C10.2141 10.7921 10.0513 11.1853 10.0513 11.5954V20.8716C10.0513 21.2816 10.2141 21.6748 10.5039 21.9648C10.7937 22.2547 11.1868 22.4176 11.5966 22.4176H19.3235C19.7334 22.4176 20.1264 22.2547 20.4162 21.9648C20.706 21.6748 20.8689 21.2816 20.8689 20.8716V11.5954C20.8689 11.1853 20.706 10.7921 20.4162 10.5021C20.1264 10.2122 19.7334 10.0493 19.3235 10.0493H17.7781" stroke="white" stroke-linecap="round" stroke-linejoin="round"/>
<path d="M13.1421 10.0493C13.1421 9.6393 13.3049 9.24606 13.5947 8.95612C13.8845 8.66618 14.2776 8.5033 14.6875 8.5033H16.2328C16.6427 8.5033 17.0358 8.66618 17.3256 8.95612C17.6154 9.24606 17.7782 9.6393 17.7782 10.0493C17.7782 10.4594 17.6154 10.8526 17.3256 11.1425C17.0358 11.4325 16.6427 11.5954 16.2328 11.5954H14.6875C14.2776 11.5954 13.8845 11.4325 13.5947 11.1425C13.3049 10.8526 13.1421 10.4594 13.1421 10.0493Z" stroke="white" stroke-linecap="round" stroke-linejoin="round"/>
<path d="M13.1421 17.0065L14.6875 18.5525L17.7782 15.4604" stroke="white" stroke-linecap="round" stroke-linejoin="round"/>
</svg>
