<svg width="44" height="43" viewBox="0 0 44 43" fill="none" xmlns="http://www.w3.org/2000/svg">
<g clip-path="url(#clip0_274_198)">
<path d="M1.87392 26.5725C2.2295 26.5725 2.57051 26.7122 2.82195 26.9609C3.07338 27.2097 3.21463 27.547 3.21463 27.8987V34.5296C3.21463 35.2331 3.49714 35.9077 4 36.4051C4.50287 36.9026 5.1849 37.182 5.89606 37.182H38.0732C38.7844 37.182 39.4664 36.9026 39.9692 36.4051C40.4721 35.9077 40.7546 35.2331 40.7546 34.5296V27.8987C40.7546 27.547 40.8959 27.2097 41.1473 26.9609C41.3987 26.7122 41.7398 26.5725 42.0953 26.5725C42.4509 26.5725 42.7919 26.7122 43.0434 26.9609C43.2948 27.2097 43.4361 27.547 43.4361 27.8987V34.5296C43.4361 35.9365 42.871 37.2858 41.8653 38.2806C40.8596 39.2755 39.4955 39.8344 38.0732 39.8344H5.89606C4.47374 39.8344 3.10968 39.2755 2.10395 38.2806C1.09822 37.2858 0.533203 35.9365 0.533203 34.5296V27.8987C0.533203 27.547 0.674457 27.2097 0.925889 26.9609C1.17732 26.7122 1.51834 26.5725 1.87392 26.5725Z" fill="#0360D9"/>
<path d="M21.0354 3.35348C21.1599 3.22998 21.3079 3.13199 21.4707 3.06514C21.6336 2.99828 21.8082 2.96387 21.9846 2.96387C22.1609 2.96387 22.3356 2.99828 22.4984 3.06514C22.6613 3.13199 22.8093 3.22998 22.9338 3.35348L30.9781 11.3106C31.2299 11.5596 31.3713 11.8974 31.3713 12.2495C31.3713 12.6017 31.2299 12.9395 30.9781 13.1885C30.7264 13.4375 30.3849 13.5774 30.0289 13.5774C29.6728 13.5774 29.3314 13.4375 29.0797 13.1885L23.3253 7.49384V30.8161C23.3253 31.1679 23.1841 31.5052 22.9326 31.7539C22.6812 32.0026 22.3402 32.1423 21.9846 32.1423C21.629 32.1423 21.288 32.0026 21.0366 31.7539C20.7851 31.5052 20.6439 31.1679 20.6439 30.8161V7.49384L14.8895 13.1885C14.7649 13.3118 14.6169 13.4096 14.454 13.4763C14.2912 13.5431 14.1166 13.5774 13.9403 13.5774C13.764 13.5774 13.5895 13.5431 13.4266 13.4763C13.2637 13.4096 13.1157 13.3118 12.9911 13.1885C12.8664 13.0652 12.7675 12.9188 12.7001 12.7577C12.6326 12.5966 12.5979 12.4239 12.5979 12.2495C12.5979 12.0752 12.6326 11.9025 12.7001 11.7414C12.7675 11.5803 12.8664 11.4339 12.9911 11.3106L21.0354 3.35348Z" fill="#0360D9"/>
</g>
<defs>
<clipPath id="clip0_274_198">
<rect width="42.9028" height="42.438" fill="white" transform="translate(0.533203 0.313965)"/>
</clipPath>
</defs>
</svg>
