<svg width="32" height="32" viewBox="0 0 32 32" fill="none" xmlns="http://www.w3.org/2000/svg">
<ellipse cx="15.9498" cy="15.95" rx="15.8012" ry="15.8012" transform="rotate(0.542099 15.9498 15.95)" fill="#0360D9"/>
<path d="M21.0967 19.7213C20.8234 19.0738 20.4267 18.4856 19.9288 17.9896C19.4324 17.4921 18.8443 17.0955 18.1971 16.8216C18.1913 16.8187 18.1855 16.8173 18.1797 16.8144C19.0825 16.1623 19.6694 15.1001 19.6694 13.9017C19.6694 11.9164 18.0609 10.3079 16.0756 10.3079C14.0903 10.3079 12.4818 11.9164 12.4818 13.9017C12.4818 15.1001 13.0687 16.1623 13.9715 16.8158C13.9657 16.8187 13.9599 16.8202 13.9541 16.8231C13.3049 17.097 12.7224 17.4897 12.2224 17.9911C11.725 18.4875 11.3284 19.0755 11.0545 19.7227C10.7854 20.3564 10.6403 21.0357 10.627 21.7239C10.6266 21.7394 10.6293 21.7548 10.635 21.7692C10.6406 21.7836 10.6491 21.7967 10.6599 21.8078C10.6707 21.8189 10.6836 21.8277 10.6979 21.8337C10.7121 21.8397 10.7274 21.8428 10.7429 21.8428H11.6124C11.6761 21.8428 11.7269 21.792 11.7283 21.7297C11.7573 20.611 12.2065 19.5633 13.0006 18.7692C13.8223 17.9476 14.9134 17.4955 16.0756 17.4955C17.2378 17.4955 18.329 17.9476 19.1506 18.7692C19.9447 19.5633 20.3939 20.611 20.4229 21.7297C20.4244 21.7935 20.4751 21.8428 20.5388 21.8428H21.4083C21.4238 21.8428 21.4391 21.8397 21.4533 21.8337C21.4676 21.8277 21.4805 21.8189 21.4913 21.8078C21.5021 21.7967 21.5106 21.7836 21.5162 21.7692C21.5219 21.7548 21.5246 21.7394 21.5242 21.7239C21.5097 21.0313 21.3663 20.3574 21.0967 19.7213ZM16.0756 16.3941C15.4105 16.3941 14.7845 16.1348 14.3135 15.6638C13.8425 15.1928 13.5832 14.5668 13.5832 13.9017C13.5832 13.2366 13.8425 12.6105 14.3135 12.1396C14.7845 11.6686 15.4105 11.4092 16.0756 11.4092C16.7407 11.4092 17.3668 11.6686 17.8377 12.1396C18.3087 12.6105 18.5681 13.2366 18.5681 13.9017C18.5681 14.5668 18.3087 15.1928 17.8377 15.6638C17.3668 16.1348 16.7407 16.3941 16.0756 16.3941Z" fill="white"/>
</svg>
